# xmcd
#
# Track frame offsets: 
#        150
#        21356
#        42062
#        55950
#        75999
#        95665
#        113255
#        132030
#        151700
#        171886
#        191510
#        212632
#        226441
#        239715
#
# Disc length: 3334 seconds
#
# Revision: 0
# Processed by: cddbd v1.5.2PL0 Copyright (c) Steve Scherf et al.
# Submitted via: ExactAudioCopy v0.99pb5
#
DISCID=aa0d040e
DTITLE=Various Artist - Top Musicians Play ZZ Top
DYEAR=2010
DGENRE=Blues/Rock
TTITLE0=Molly Hatchet - Sharp Dressed Man
TTITLE1=Jim Dandy's Black Oak Arkansas - La Grange
TTITLE2=Atlanta Rhythm Section - Sharp Dressed Man-Gimme All Your Lovi
TTITLE2=n'
TTITLE3=Artimus Pyle (Lynyrd Skynyrd Alumni) - Legs
TTITLE4=Pat Travers - Jesus Just Left Chicago
TTITLE5=Walter Trout - Gimme All Your Lovin'
TTITLE6=Fee Waybill (The Tubes) - Cheap Sunglasses
TTITLE7=Artimus Pyle Band - Pearl Necklage
TTITLE8=Winter Brothers Band - Planet Of Woman
TTITLE9=Sky Saxon (The Seeds) - Sharp Dressed Man
TTITLE10=National Dust - I'm Bad, I'm Nationwide
TTITLE11=Pat Travers - Waiting For The Bus
TTITLE12=The Long Island Street Survivors - Heard It On The X
TTITLE13=Jason McMaster (Dangerous Toy) - Tush
EXTD=
EXTT0=
EXTT1=
EXTT2=
EXTT3=
EXTT4=
EXTT5=
EXTT6=
EXTT7=
EXTT8=
EXTT9=
EXTT10=
EXTT11=
EXTT12=
EXTT13=
PLAYORDER=
